<?xml version="1.0" encoding="UTF-8" standalone="no"?>
<!-- Created with Inkscape (http://www.inkscape.org/) -->

<svg
   xmlns:adsadfs="adsadfs"
   xmlns:dc="http://purl.org/dc/elements/1.1/"
   xmlns:cc="http://creativecommons.org/ns#"
   xmlns:rdf="http://www.w3.org/1999/02/22-rdf-syntax-ns#"
   xmlns:svg="http://www.w3.org/2000/svg"
   xmlns="http://www.w3.org/2000/svg"
   xmlns:xlink="http://www.w3.org/1999/xlink"
   xmlns:sodipodi="http://sodipodi.sourceforge.net/DTD/sodipodi-0.dtd"
   xmlns:inkscape="http://www.inkscape.org/namespaces/inkscape"
   version="1.1"
   width="277.60345"
   height="333.37732"
   id="svg3195"
   inkscape:version="0.48.4 r9939"
   sodipodi:docname="Three_apples[1].svg">
  <defs
     id="defs3401" />
  <sodipodi:namedview
     pagecolor="#ffffff"
     bordercolor="#666666"
     borderopacity="1"
     objecttolerance="10"
     gridtolerance="10"
     guidetolerance="10"
     inkscape:pageopacity="0"
     inkscape:pageshadow="2"
     inkscape:window-width="1610"
     inkscape:window-height="775"
     id="namedview3399"
     showgrid="false"
     inkscape:zoom="1.4028163"
     inkscape:cx="58.20041"
     inkscape:cy="143.84715"
     inkscape:window-x="1332"
     inkscape:window-y="98"
     inkscape:window-maximized="0"
     inkscape:current-layer="Layer_1"
     fit-margin-top="0"
     fit-margin-left="0"
     fit-margin-right="0"
     fit-margin-bottom="0" />
  <metadata
     id="metadata7">
    <rdf:RDF>
      <cc:Work
         rdf:about="">
        <dc:format>image/svg+xml</dc:format>
        <dc:type
           rdf:resource="http://purl.org/dc/dcmitype/StillImage" />
        <dc:title></dc:title>
      </cc:Work>
    </rdf:RDF>
  </metadata>
  <g
     id="Layer_1"
     adsadfs:layer="yes"
     adsadfs:dimmedPercent="50"
     adsadfs:rgbTrio="#4F008000FFFF"
     transform="translate(3.5960418e-4,-1.4261652)">
    <use
       x="0"
       y="0"
       inkscape:tiled-clone-of="#g3199"
       xlink:href="#g3199"
       transform="translate(0,152.22484)"
       id="use3487"
       width="184.61301"
       height="336.466" />
    <line
       adsadfs:knockout="Off"
       x1="138.91124"
       y1="3.7726963"
       x2="138.91124"
       y2="111.7727"
       id="line3203"
       style="fill:none" />
    <g
       id="g3205"
       transform="translate(94.494245,3.4256963)">
      <g
         id="g3207">
        <path
           adsadfs:knockout="Off"
           d="m 68.874,8.505 -3.525,6.023 c 0,0 -12.831,-3.47 -19.742,24.869 -10e-4,0 2.114,-32.288 23.267,-30.892 z"
           id="path3209"
           inkscape:connector-curvature="0"
           style="fill:#9e6111" />
        <path
           adsadfs:knockout="Off"
           d="m 44.618,31.878 c 0,0 -26.326,-9.832 -22.625,-31.531 9.79,0.589 26.573,0.01 22.625,31.531 z"
           id="path3211"
           inkscape:connector-curvature="0"
           style="fill:#4dac26" />
        <path
           adsadfs:knockout="Off"
           d="m 46.922,35.637 c 0,0 7.239,2.602 13.491,-2.025 6.252,-4.625 21.719,-1.155 24.022,8.387 1.583,6.561 4.566,31.985 -6.661,47.985 -5.105,7.273 -13.082,15.924 -25.589,13.321 -2.304,2.024 -13.819,5.785 -22.374,4.049 C 21.258,105.618 -2.8,83.575 3.813,41.71 7.105,20.89 45.278,34.191 46.922,35.637 z"
           id="path3213"
           inkscape:connector-curvature="0"
           style="fill:#dc151f" />
        <g
           id="g3215">
          <g
             id="g3217">
            <path
               adsadfs:knockout="Off"
               d="m 60.105,34.235 c 5.405,-2.573 10.913,-3.78 16.133,0.518 11.935,9.856 9.208,28.551 7.664,39.814 -1.426,10.371 -9.681,18.906 -18.271,26.288 -5.238,4.527 -11.165,1.595 -14.589,0.775 -0.304,-0.072 -2.337,1.793 -0.416,2.257 5.944,1.433 8.234,1.677 11.993,-0.024 6.877,-3.13 12.102,-7.138 15.828,-12.914 5.225,-8.086 8.843,-17.505 9.726,-26.61 0.665,-6.384 0.829,-12.819 -1.326,-19.035 -1.962,-5.631 -3.535,-10.487 -10.828,-13.205 -9.695,-3.614 -15.03,0 -19.337,2.208 -0.758,0.386 -5.03,1.481 -5.058,1.579 -0.026,0.121 0.027,0.218 0.166,0.242 0,0 3.011,0.633 8.315,-1.893 z"
               id="path3219"
               inkscape:connector-curvature="0" />
            <path
               adsadfs:knockout="Off"
               d="m 38.366,39.686 c 0,0 -1.644,2.891 1.977,4.626 3.619,1.736 10.53,5.229 14.973,-3.892 -4.115,1.29 -14.973,3.893 -16.95,-0.734 z"
               id="path3221"
               inkscape:connector-curvature="0"
               style="fill:#a81018" />
            <path
               adsadfs:knockout="Off"
               d="m 53.668,40.709 c -3.37,0.315 -7.128,0.096 -9.833,2.208 0,0 -3.29,-0.315 -4.781,-3.034 -0.064,-0.118 -0.531,-0.187 -0.443,0.218 0.829,1.458 3.261,3.035 5.196,3.522 0,0 4.086,-1.993 9.915,-2.525 0.115,-0.011 0.47,-0.306 -0.054,-0.389 l 0,0 z"
               id="path3223"
               inkscape:connector-curvature="0" />
            <path
               adsadfs:knockout="Off"
               d="m 63.265,36.194 c 0,0 20.511,-6.629 15.906,21.133 C 77.855,38.239 70.616,38.528 63.265,36.194 z"
               id="path3225"
               inkscape:connector-curvature="0"
               style="fill:#df574f" />
            <path
               adsadfs:knockout="Off"
               d="m 21.351,39.36 c -8.45,8.496 -8.387,21.701 -3.582,31.535 0.636,0.666 0.832,-0.047 0.747,-0.244 -3.646,-9.37 -5.47,-21.46 3.068,-29.23 0,0 1.878,-1.843 1.851,-1.94 -0.058,-0.099 -2.084,-0.121 -2.084,-0.121 z"
               id="path3227"
               inkscape:connector-curvature="0" />
            <path
               adsadfs:knockout="Off"
               d="M 70.603,14.634 C 69.693,13.129 68.752,10.446 69.72,8.541 69.859,8.37 66.696,5.118 59.967,9.222 52.453,14.125 47.7,20.584 45.491,28.473 45.115,29.765 44.666,34.165 44.449,34.037 39.53,31.221 33.776,29.541 28.167,28.716 22.89,27.963 17.534,27.866 12.67,29.929 4.602,33.353 0.982,41.146 0.265,48.527 c -1.214,12.091 1.881,24.034 6.356,35.371 12.172,29.194 31.823,25.543 36.77,22.678 3.233,-1.893 4.363,-5.146 5.25,-8.278 0.166,-0.293 -4.083,12.512 -19.479,8.254 C 20.102,102.474 18.147,99.305 10.525,86.741 4.338,65.763 4.629,74.568 3.746,53.073 3.469,46.307 7.355,33.231 14.65,30.026 c 7.878,-3.423 23.824,2.957 29.681,5.439 0.128,0.057 -0.105,3.87 0.331,5.075 0.437,1.204 0.91,0.388 0.938,0.17 1.634,-4.151 2.432,-8.547 4.448,-12.553 2.692,-5.333 6.315,-11.988 13.854,-12.61 0.003,0.003 3.443,0.701 4.735,-0.684 -0.527,-0.29 -1.491,-0.495 -1.921,-0.408 -0.45,0.634 -1.425,0.08 -2.148,0.197 1.086,-2.227 2.392,-4.351 3.718,-6.462 l 0.589,0.316 c -0.88,1.274 -0.565,4.917 0.846,6.519 0.11,0.217 1.142,0.391 0.882,-0.391 z M 45.004,38.381 c -0.01,-0.956 0.058,-1.939 0.166,-2.933 0.382,-0.144 0.724,-0.44 0.899,-0.807 l 0.023,-0.018 c -0.435,1.234 -0.827,2.481 -1.088,3.758 z M 63.918,14.685 c -3.204,-0.024 -6.079,1.189 -8.4,3.203 -3.203,2.817 -4.337,6.41 -6.241,9.833 -1.204,2.17 -2.263,4.381 -3.092,6.653 -0.044,-0.082 -0.152,-0.141 -0.254,-0.098 l -0.585,-0.148 c 0.822,-5.332 3.146,-10.887 6.414,-14.977 3.891,-4.872 8.355,-10.332 15.176,-11.064 -1.983,2.226 -2.047,3.177 -3.018,6.598 z"
               id="path3229"
               inkscape:connector-curvature="0" />
            <path
               adsadfs:knockout="Off"
               d="M 43.888,10.605 C 40.05,2.642 31.083,-1.23 21.993,0.347 c 0,0 -2.003,2.78 -1.366,5.936 1.938,9.623 8.203,18.281 17.706,23.137 0.169,0.073 0.73,-0.115 0.389,-0.51 C 29.578,24.031 24.412,15.55 21.621,6.283 20.877,3.806 22.18,0.948 22.159,0.896 30.68,0.064 38.546,3.765 42.534,10.969 c 2.375,4.346 2.236,9.153 2.128,13.838 0.111,0.511 0.579,0.17 0.579,0.024 0.331,-4.782 0.828,-9.709 -1.353,-14.226 z"
               id="path3231"
               inkscape:connector-curvature="0" />
            <path
               adsadfs:knockout="Off"
               d="m 41.655,28.408 c 0,0 1.976,-21.4 -11.844,-20.532 9.211,2.603 11.516,17.929 11.844,20.532 z"
               id="path3233"
               inkscape:connector-curvature="0"
               style="fill:#9cd122" />
            <path
               adsadfs:knockout="Off"
               d="M 42.229,29.517 C 41.069,25.124 40.904,20.705 38.087,16.601 35.903,13.446 33.085,11.042 30.849,8.08 l 0,0 c -0.169,-0.267 -1.59,-0.583 -1.132,0.583 4.722,6.652 11.213,12.745 12.1,20.928 0.225,0.499 0.44,0.022 0.412,-0.074 l 0,0 z"
               id="path3235"
               inkscape:connector-curvature="0" />
          </g>
        </g>
        <path
           adsadfs:knockout="Off"
           d="m 50.542,94.342 c 0,0 -1.647,12.724 -15.795,12.724 4.275,-3.761 14.479,-5.494 15.795,-12.724 z"
           id="path3237"
           inkscape:connector-curvature="0"
           style="fill:#a81018" />
      </g>
    </g>
    <use
       x="0"
       y="0"
       inkscape:tiled-clone-of="#g3199"
       xlink:href="#g3199"
       transform="translate(0,228.33726)"
       id="use3489"
       width="184.61301"
       height="336.466" />
    <use
       x="0"
       y="0"
       inkscape:tiled-clone-of="#g3199"
       xlink:href="#g3199"
       transform="translate(97.169185,7.6293946e-6)"
       id="use3491"
       width="184.61301"
       height="336.466" />
    <use
       x="0"
       y="0"
       inkscape:tiled-clone-of="#g3199"
       xlink:href="#g3199"
       transform="translate(97.169185,114.16863)"
       id="use3493"
       width="184.61301"
       height="336.466" />
    <use
       x="0"
       y="0"
       inkscape:tiled-clone-of="#g3199"
       xlink:href="#g3199"
       transform="translate(97.169185,228.33726)"
       id="use3495"
       width="184.61301"
       height="336.466" />
    <g
       id="g3520"
       transform="translate(46.335359,0)">
      <g
         transform="translate(0,113.88146)"
         inkscape:tile-y0="0.00046891476"
         inkscape:tile-x0="-0.00035960418"
         id="use3499"
         adsadfs:knockout="Off"
         style="stroke:none">
        <g
           id="g3792">
          <line
             style="fill:none"
             id="line3794"
             y2="108.347"
             x2="44.417"
             y1="0.347"
             x1="44.417"
             adsadfs:knockout="Off" />
          <g
             id="g3796">
            <g
               id="g3798">
              <path
                 style="fill:#9e6111"
                 inkscape:connector-curvature="0"
                 id="path3800"
                 d="m 68.874,8.505 -3.525,6.023 c 0,0 -12.831,-3.47 -19.742,24.869 -10e-4,0 2.114,-32.288 23.267,-30.892 z"
                 adsadfs:knockout="Off" />
              <path
                 style="fill:#4dac26"
                 inkscape:connector-curvature="0"
                 id="path3802"
                 d="m 44.618,31.878 c 0,0 -26.326,-9.832 -22.625,-31.531 9.79,0.589 26.573,0.01 22.625,31.531 z"
                 adsadfs:knockout="Off" />
              <path
                 style="fill:#dc151f"
                 inkscape:connector-curvature="0"
                 id="path3804"
                 d="m 46.922,35.637 c 0,0 7.239,2.602 13.491,-2.025 6.252,-4.625 21.719,-1.155 24.022,8.387 1.583,6.561 4.566,31.985 -6.661,47.985 -5.105,7.273 -13.082,15.924 -25.589,13.321 -2.304,2.024 -13.819,5.785 -22.374,4.049 C 21.258,105.618 -2.8,83.575 3.813,41.71 7.105,20.89 45.278,34.191 46.922,35.637 z"
                 adsadfs:knockout="Off" />
              <g
                 id="g3806">
                <g
                   id="g3808">
                  <path
                     inkscape:connector-curvature="0"
                     id="path3810"
                     d="m 60.105,34.235 c 5.405,-2.573 10.913,-3.78 16.133,0.518 11.935,9.856 9.208,28.551 7.664,39.814 -1.426,10.371 -9.681,18.906 -18.271,26.288 -5.238,4.527 -11.165,1.595 -14.589,0.775 -0.304,-0.072 -2.337,1.793 -0.416,2.257 5.944,1.433 8.234,1.677 11.993,-0.024 6.877,-3.13 12.102,-7.138 15.828,-12.914 5.225,-8.086 8.843,-17.505 9.726,-26.61 0.665,-6.384 0.829,-12.819 -1.326,-19.035 -1.962,-5.631 -3.535,-10.487 -10.828,-13.205 -9.695,-3.614 -15.03,0 -19.337,2.208 -0.758,0.386 -5.03,1.481 -5.058,1.579 -0.026,0.121 0.027,0.218 0.166,0.242 0,0 3.011,0.633 8.315,-1.893 z"
                     adsadfs:knockout="Off" />
                  <path
                     style="fill:#a81018"
                     inkscape:connector-curvature="0"
                     id="path3812"
                     d="m 38.366,39.686 c 0,0 -1.644,2.891 1.977,4.626 3.619,1.736 10.53,5.229 14.973,-3.892 -4.115,1.29 -14.973,3.893 -16.95,-0.734 z"
                     adsadfs:knockout="Off" />
                  <path
                     inkscape:connector-curvature="0"
                     id="path3814"
                     d="m 53.668,40.709 c -3.37,0.315 -7.128,0.096 -9.833,2.208 0,0 -3.29,-0.315 -4.781,-3.034 -0.064,-0.118 -0.531,-0.187 -0.443,0.218 0.829,1.458 3.261,3.035 5.196,3.522 0,0 4.086,-1.993 9.915,-2.525 0.115,-0.011 0.47,-0.306 -0.054,-0.389 l 0,0 z"
                     adsadfs:knockout="Off" />
                  <path
                     style="fill:#df574f"
                     inkscape:connector-curvature="0"
                     id="path3816"
                     d="m 63.265,36.194 c 0,0 20.511,-6.629 15.906,21.133 C 77.855,38.239 70.616,38.528 63.265,36.194 z"
                     adsadfs:knockout="Off" />
                  <path
                     inkscape:connector-curvature="0"
                     id="path3818"
                     d="m 21.351,39.36 c -8.45,8.496 -8.387,21.701 -3.582,31.535 0.636,0.666 0.832,-0.047 0.747,-0.244 -3.646,-9.37 -5.47,-21.46 3.068,-29.23 0,0 1.878,-1.843 1.851,-1.94 -0.058,-0.099 -2.084,-0.121 -2.084,-0.121 z"
                     adsadfs:knockout="Off" />
                  <path
                     inkscape:connector-curvature="0"
                     id="path3820"
                     d="M 70.603,14.634 C 69.693,13.129 68.752,10.446 69.72,8.541 69.859,8.37 66.696,5.118 59.967,9.222 52.453,14.125 47.7,20.584 45.491,28.473 45.115,29.765 44.666,34.165 44.449,34.037 39.53,31.221 33.776,29.541 28.167,28.716 22.89,27.963 17.534,27.866 12.67,29.929 4.602,33.353 0.982,41.146 0.265,48.527 c -1.214,12.091 1.881,24.034 6.356,35.371 12.172,29.194 31.823,25.543 36.77,22.678 3.233,-1.893 4.363,-5.146 5.25,-8.278 0.166,-0.293 -4.083,12.512 -19.479,8.254 C 20.102,102.474 18.147,99.305 10.525,86.741 4.338,65.763 4.629,74.568 3.746,53.073 3.469,46.307 7.355,33.231 14.65,30.026 c 7.878,-3.423 23.824,2.957 29.681,5.439 0.128,0.057 -0.105,3.87 0.331,5.075 0.437,1.204 0.91,0.388 0.938,0.17 1.634,-4.151 2.432,-8.547 4.448,-12.553 2.692,-5.333 6.315,-11.988 13.854,-12.61 0.003,0.003 3.443,0.701 4.735,-0.684 -0.527,-0.29 -1.491,-0.495 -1.921,-0.408 -0.45,0.634 -1.425,0.08 -2.148,0.197 1.086,-2.227 2.392,-4.351 3.718,-6.462 l 0.589,0.316 c -0.88,1.274 -0.565,4.917 0.846,6.519 0.11,0.217 1.142,0.391 0.882,-0.391 z M 45.004,38.381 c -0.01,-0.956 0.058,-1.939 0.166,-2.933 0.382,-0.144 0.724,-0.44 0.899,-0.807 l 0.023,-0.018 c -0.435,1.234 -0.827,2.481 -1.088,3.758 z M 63.918,14.685 c -3.204,-0.024 -6.079,1.189 -8.4,3.203 -3.203,2.817 -4.337,6.41 -6.241,9.833 -1.204,2.17 -2.263,4.381 -3.092,6.653 -0.044,-0.082 -0.152,-0.141 -0.254,-0.098 l -0.585,-0.148 c 0.822,-5.332 3.146,-10.887 6.414,-14.977 3.891,-4.872 8.355,-10.332 15.176,-11.064 -1.983,2.226 -2.047,3.177 -3.018,6.598 z"
                     adsadfs:knockout="Off" />
                  <path
                     inkscape:connector-curvature="0"
                     id="path3822"
                     d="M 43.888,10.605 C 40.05,2.642 31.083,-1.23 21.993,0.347 c 0,0 -2.003,2.78 -1.366,5.936 1.938,9.623 8.203,18.281 17.706,23.137 0.169,0.073 0.73,-0.115 0.389,-0.51 C 29.578,24.031 24.412,15.55 21.621,6.283 20.877,3.806 22.18,0.948 22.159,0.896 30.68,0.064 38.546,3.765 42.534,10.969 c 2.375,4.346 2.236,9.153 2.128,13.838 0.111,0.511 0.579,0.17 0.579,0.024 0.331,-4.782 0.828,-9.709 -1.353,-14.226 z"
                     adsadfs:knockout="Off" />
                  <path
                     style="fill:#9cd122"
                     inkscape:connector-curvature="0"
                     id="path3824"
                     d="m 41.655,28.408 c 0,0 1.976,-21.4 -11.844,-20.532 9.211,2.603 11.516,17.929 11.844,20.532 z"
                     adsadfs:knockout="Off" />
                  <path
                     inkscape:connector-curvature="0"
                     id="path3826"
                     d="M 42.229,29.517 C 41.069,25.124 40.904,20.705 38.087,16.601 35.903,13.446 33.085,11.042 30.849,8.08 l 0,0 c -0.169,-0.267 -1.59,-0.583 -1.132,0.583 4.722,6.652 11.213,12.745 12.1,20.928 0.225,0.499 0.44,0.022 0.412,-0.074 l 0,0 z"
                     adsadfs:knockout="Off" />
                </g>
              </g>
              <path
                 style="fill:#a81018"
                 inkscape:connector-curvature="0"
                 id="path3828"
                 d="m 50.542,94.342 c 0,0 -1.647,12.724 -15.795,12.724 4.275,-3.761 14.479,-5.494 15.795,-12.724 z"
                 adsadfs:knockout="Off" />
            </g>
          </g>
        </g>
      </g>
      <g
         transform="translate(96.317772,113.88146)"
         inkscape:tile-y0="0.00046891476"
         inkscape:tile-x0="-0.00035960418"
         id="use3505"
         adsadfs:knockout="Off">
        <g
           id="g3832">
          <line
             style="fill:none"
             id="line3834"
             y2="108.347"
             x2="44.417"
             y1="0.347"
             x1="44.417"
             adsadfs:knockout="Off" />
          <g
             id="g3836">
            <g
               id="g3838">
              <path
                 style="fill:#9e6111"
                 inkscape:connector-curvature="0"
                 id="path3840"
                 d="m 68.874,8.505 -3.525,6.023 c 0,0 -12.831,-3.47 -19.742,24.869 -10e-4,0 2.114,-32.288 23.267,-30.892 z"
                 adsadfs:knockout="Off" />
              <path
                 style="fill:#4dac26"
                 inkscape:connector-curvature="0"
                 id="path3842"
                 d="m 44.618,31.878 c 0,0 -26.326,-9.832 -22.625,-31.531 9.79,0.589 26.573,0.01 22.625,31.531 z"
                 adsadfs:knockout="Off" />
              <path
                 style="fill:#008000"
                 inkscape:connector-curvature="0"
                 id="path3844"
                 d="m 46.922,35.637 c 0,0 7.239,2.602 13.491,-2.025 6.252,-4.625 21.719,-1.155 24.022,8.387 1.583,6.561 4.566,31.985 -6.661,47.985 -5.105,7.273 -13.082,15.924 -25.589,13.321 -2.304,2.024 -13.819,5.785 -22.374,4.049 C 21.258,105.618 -2.8,83.575 3.813,41.71 7.105,20.89 45.278,34.191 46.922,35.637 z"
                 adsadfs:knockout="Off" />
              <g
                 id="g3846">
                <g
                   id="g3848">
                  <path
                     inkscape:connector-curvature="0"
                     id="path3850"
                     d="m 60.105,34.235 c 5.405,-2.573 10.913,-3.78 16.133,0.518 11.935,9.856 9.208,28.551 7.664,39.814 -1.426,10.371 -9.681,18.906 -18.271,26.288 -5.238,4.527 -11.165,1.595 -14.589,0.775 -0.304,-0.072 -2.337,1.793 -0.416,2.257 5.944,1.433 8.234,1.677 11.993,-0.024 6.877,-3.13 12.102,-7.138 15.828,-12.914 5.225,-8.086 8.843,-17.505 9.726,-26.61 0.665,-6.384 0.829,-12.819 -1.326,-19.035 -1.962,-5.631 -3.535,-10.487 -10.828,-13.205 -9.695,-3.614 -15.03,0 -19.337,2.208 -0.758,0.386 -5.03,1.481 -5.058,1.579 -0.026,0.121 0.027,0.218 0.166,0.242 0,0 3.011,0.633 8.315,-1.893 z"
                     adsadfs:knockout="Off" />
                  <path
                     style="fill:#004600;fill-opacity:1"
                     inkscape:connector-curvature="0"
                     id="path3852"
                     d="m 38.366,39.686 c 0,0 -1.644,2.891 1.977,4.626 3.619,1.736 10.53,5.229 14.973,-3.892 -4.115,1.29 -14.973,3.893 -16.95,-0.734 z"
                     adsadfs:knockout="Off" />
                  <path
                     inkscape:connector-curvature="0"
                     id="path3854"
                     d="m 53.668,40.709 c -3.37,0.315 -7.128,0.096 -9.833,2.208 0,0 -3.29,-0.315 -4.781,-3.034 -0.064,-0.118 -0.531,-0.187 -0.443,0.218 0.829,1.458 3.261,3.035 5.196,3.522 0,0 4.086,-1.993 9.915,-2.525 0.115,-0.011 0.47,-0.306 -0.054,-0.389 l 0,0 z"
                     adsadfs:knockout="Off" />
                  <path
                     style="fill:#41bf41;fill-opacity:1"
                     inkscape:connector-curvature="0"
                     id="path3856"
                     d="m 63.265,36.194 c 0,0 20.511,-6.629 15.906,21.133 C 77.855,38.239 70.616,38.528 63.265,36.194 z"
                     adsadfs:knockout="Off" />
                  <path
                     inkscape:connector-curvature="0"
                     id="path3858"
                     d="m 21.351,39.36 c -8.45,8.496 -8.387,21.701 -3.582,31.535 0.636,0.666 0.832,-0.047 0.747,-0.244 -3.646,-9.37 -5.47,-21.46 3.068,-29.23 0,0 1.878,-1.843 1.851,-1.94 -0.058,-0.099 -2.084,-0.121 -2.084,-0.121 z"
                     adsadfs:knockout="Off" />
                  <path
                     inkscape:connector-curvature="0"
                     id="path3860"
                     d="M 70.603,14.634 C 69.693,13.129 68.752,10.446 69.72,8.541 69.859,8.37 66.696,5.118 59.967,9.222 52.453,14.125 47.7,20.584 45.491,28.473 45.115,29.765 44.666,34.165 44.449,34.037 39.53,31.221 33.776,29.541 28.167,28.716 22.89,27.963 17.534,27.866 12.67,29.929 4.602,33.353 0.982,41.146 0.265,48.527 c -1.214,12.091 1.881,24.034 6.356,35.371 12.172,29.194 31.823,25.543 36.77,22.678 3.233,-1.893 4.363,-5.146 5.25,-8.278 0.166,-0.293 -4.083,12.512 -19.479,8.254 C 20.102,102.474 18.147,99.305 10.525,86.741 4.338,65.763 4.629,74.568 3.746,53.073 3.469,46.307 7.355,33.231 14.65,30.026 c 7.878,-3.423 23.824,2.957 29.681,5.439 0.128,0.057 -0.105,3.87 0.331,5.075 0.437,1.204 0.91,0.388 0.938,0.17 1.634,-4.151 2.432,-8.547 4.448,-12.553 2.692,-5.333 6.315,-11.988 13.854,-12.61 0.003,0.003 3.443,0.701 4.735,-0.684 -0.527,-0.29 -1.491,-0.495 -1.921,-0.408 -0.45,0.634 -1.425,0.08 -2.148,0.197 1.086,-2.227 2.392,-4.351 3.718,-6.462 l 0.589,0.316 c -0.88,1.274 -0.565,4.917 0.846,6.519 0.11,0.217 1.142,0.391 0.882,-0.391 z M 45.004,38.381 c -0.01,-0.956 0.058,-1.939 0.166,-2.933 0.382,-0.144 0.724,-0.44 0.899,-0.807 l 0.023,-0.018 c -0.435,1.234 -0.827,2.481 -1.088,3.758 z M 63.918,14.685 c -3.204,-0.024 -6.079,1.189 -8.4,3.203 -3.203,2.817 -4.337,6.41 -6.241,9.833 -1.204,2.17 -2.263,4.381 -3.092,6.653 -0.044,-0.082 -0.152,-0.141 -0.254,-0.098 l -0.585,-0.148 c 0.822,-5.332 3.146,-10.887 6.414,-14.977 3.891,-4.872 8.355,-10.332 15.176,-11.064 -1.983,2.226 -2.047,3.177 -3.018,6.598 z"
                     adsadfs:knockout="Off" />
                  <path
                     inkscape:connector-curvature="0"
                     id="path3862"
                     d="M 43.888,10.605 C 40.05,2.642 31.083,-1.23 21.993,0.347 c 0,0 -2.003,2.78 -1.366,5.936 1.938,9.623 8.203,18.281 17.706,23.137 0.169,0.073 0.73,-0.115 0.389,-0.51 C 29.578,24.031 24.412,15.55 21.621,6.283 20.877,3.806 22.18,0.948 22.159,0.896 30.68,0.064 38.546,3.765 42.534,10.969 c 2.375,4.346 2.236,9.153 2.128,13.838 0.111,0.511 0.579,0.17 0.579,0.024 0.331,-4.782 0.828,-9.709 -1.353,-14.226 z"
                     adsadfs:knockout="Off" />
                  <path
                     style="fill:#9cd122"
                     inkscape:connector-curvature="0"
                     id="path3864"
                     d="m 41.655,28.408 c 0,0 1.976,-21.4 -11.844,-20.532 9.211,2.603 11.516,17.929 11.844,20.532 z"
                     adsadfs:knockout="Off" />
                  <path
                     inkscape:connector-curvature="0"
                     id="path3866"
                     d="M 42.229,29.517 C 41.069,25.124 40.904,20.705 38.087,16.601 35.903,13.446 33.085,11.042 30.849,8.08 l 0,0 c -0.169,-0.267 -1.59,-0.583 -1.132,0.583 4.722,6.652 11.213,12.745 12.1,20.928 0.225,0.499 0.44,0.022 0.412,-0.074 l 0,0 z"
                     adsadfs:knockout="Off" />
                </g>
              </g>
              <path
                 style="fill:#004600;fill-opacity:1"
                 inkscape:connector-curvature="0"
                 id="path3868"
                 d="m 50.542,94.342 c 0,0 -1.647,12.724 -15.795,12.724 4.275,-3.761 14.479,-5.494 15.795,-12.724 z"
                 adsadfs:knockout="Off" />
            </g>
          </g>
        </g>
      </g>
    </g>
    <g
       id="g3515"
       transform="translate(0,-2)">
      <g
         transform="translate(0,226.33723)"
         inkscape:tile-y0="0.00046891476"
         inkscape:tile-x0="-0.00035960418"
         id="use3501"
         adsadfs:knockout="Off">
        <g
           id="g3872">
          <line
             style="fill:none"
             id="line3874"
             y2="108.347"
             x2="44.417"
             y1="0.347"
             x1="44.417"
             adsadfs:knockout="Off" />
          <g
             id="g3876">
            <g
               id="g3878">
              <path
                 style="fill:#9e6111"
                 inkscape:connector-curvature="0"
                 id="path3880"
                 d="m 68.874,8.505 -3.525,6.023 c 0,0 -12.831,-3.47 -19.742,24.869 -10e-4,0 2.114,-32.288 23.267,-30.892 z"
                 adsadfs:knockout="Off" />
              <path
                 style="fill:#4dac26"
                 inkscape:connector-curvature="0"
                 id="path3882"
                 d="m 44.618,31.878 c 0,0 -26.326,-9.832 -22.625,-31.531 9.79,0.589 26.573,0.01 22.625,31.531 z"
                 adsadfs:knockout="Off" />
              <path
                 style="fill:#dc151f"
                 inkscape:connector-curvature="0"
                 id="path3884"
                 d="m 46.922,35.637 c 0,0 7.239,2.602 13.491,-2.025 6.252,-4.625 21.719,-1.155 24.022,8.387 1.583,6.561 4.566,31.985 -6.661,47.985 -5.105,7.273 -13.082,15.924 -25.589,13.321 -2.304,2.024 -13.819,5.785 -22.374,4.049 C 21.258,105.618 -2.8,83.575 3.813,41.71 7.105,20.89 45.278,34.191 46.922,35.637 z"
                 adsadfs:knockout="Off" />
              <g
                 id="g3886">
                <g
                   id="g3888">
                  <path
                     inkscape:connector-curvature="0"
                     id="path3890"
                     d="m 60.105,34.235 c 5.405,-2.573 10.913,-3.78 16.133,0.518 11.935,9.856 9.208,28.551 7.664,39.814 -1.426,10.371 -9.681,18.906 -18.271,26.288 -5.238,4.527 -11.165,1.595 -14.589,0.775 -0.304,-0.072 -2.337,1.793 -0.416,2.257 5.944,1.433 8.234,1.677 11.993,-0.024 6.877,-3.13 12.102,-7.138 15.828,-12.914 5.225,-8.086 8.843,-17.505 9.726,-26.61 0.665,-6.384 0.829,-12.819 -1.326,-19.035 -1.962,-5.631 -3.535,-10.487 -10.828,-13.205 -9.695,-3.614 -15.03,0 -19.337,2.208 -0.758,0.386 -5.03,1.481 -5.058,1.579 -0.026,0.121 0.027,0.218 0.166,0.242 0,0 3.011,0.633 8.315,-1.893 z"
                     adsadfs:knockout="Off" />
                  <path
                     style="fill:#a81018"
                     inkscape:connector-curvature="0"
                     id="path3892"
                     d="m 38.366,39.686 c 0,0 -1.644,2.891 1.977,4.626 3.619,1.736 10.53,5.229 14.973,-3.892 -4.115,1.29 -14.973,3.893 -16.95,-0.734 z"
                     adsadfs:knockout="Off" />
                  <path
                     inkscape:connector-curvature="0"
                     id="path3894"
                     d="m 53.668,40.709 c -3.37,0.315 -7.128,0.096 -9.833,2.208 0,0 -3.29,-0.315 -4.781,-3.034 -0.064,-0.118 -0.531,-0.187 -0.443,0.218 0.829,1.458 3.261,3.035 5.196,3.522 0,0 4.086,-1.993 9.915,-2.525 0.115,-0.011 0.47,-0.306 -0.054,-0.389 l 0,0 z"
                     adsadfs:knockout="Off" />
                  <path
                     style="fill:#df574f"
                     inkscape:connector-curvature="0"
                     id="path3896"
                     d="m 63.265,36.194 c 0,0 20.511,-6.629 15.906,21.133 C 77.855,38.239 70.616,38.528 63.265,36.194 z"
                     adsadfs:knockout="Off" />
                  <path
                     inkscape:connector-curvature="0"
                     id="path3898"
                     d="m 21.351,39.36 c -8.45,8.496 -8.387,21.701 -3.582,31.535 0.636,0.666 0.832,-0.047 0.747,-0.244 -3.646,-9.37 -5.47,-21.46 3.068,-29.23 0,0 1.878,-1.843 1.851,-1.94 -0.058,-0.099 -2.084,-0.121 -2.084,-0.121 z"
                     adsadfs:knockout="Off" />
                  <path
                     inkscape:connector-curvature="0"
                     id="path3900"
                     d="M 70.603,14.634 C 69.693,13.129 68.752,10.446 69.72,8.541 69.859,8.37 66.696,5.118 59.967,9.222 52.453,14.125 47.7,20.584 45.491,28.473 45.115,29.765 44.666,34.165 44.449,34.037 39.53,31.221 33.776,29.541 28.167,28.716 22.89,27.963 17.534,27.866 12.67,29.929 4.602,33.353 0.982,41.146 0.265,48.527 c -1.214,12.091 1.881,24.034 6.356,35.371 12.172,29.194 31.823,25.543 36.77,22.678 3.233,-1.893 4.363,-5.146 5.25,-8.278 0.166,-0.293 -4.083,12.512 -19.479,8.254 C 20.102,102.474 18.147,99.305 10.525,86.741 4.338,65.763 4.629,74.568 3.746,53.073 3.469,46.307 7.355,33.231 14.65,30.026 c 7.878,-3.423 23.824,2.957 29.681,5.439 0.128,0.057 -0.105,3.87 0.331,5.075 0.437,1.204 0.91,0.388 0.938,0.17 1.634,-4.151 2.432,-8.547 4.448,-12.553 2.692,-5.333 6.315,-11.988 13.854,-12.61 0.003,0.003 3.443,0.701 4.735,-0.684 -0.527,-0.29 -1.491,-0.495 -1.921,-0.408 -0.45,0.634 -1.425,0.08 -2.148,0.197 1.086,-2.227 2.392,-4.351 3.718,-6.462 l 0.589,0.316 c -0.88,1.274 -0.565,4.917 0.846,6.519 0.11,0.217 1.142,0.391 0.882,-0.391 z M 45.004,38.381 c -0.01,-0.956 0.058,-1.939 0.166,-2.933 0.382,-0.144 0.724,-0.44 0.899,-0.807 l 0.023,-0.018 c -0.435,1.234 -0.827,2.481 -1.088,3.758 z M 63.918,14.685 c -3.204,-0.024 -6.079,1.189 -8.4,3.203 -3.203,2.817 -4.337,6.41 -6.241,9.833 -1.204,2.17 -2.263,4.381 -3.092,6.653 -0.044,-0.082 -0.152,-0.141 -0.254,-0.098 l -0.585,-0.148 c 0.822,-5.332 3.146,-10.887 6.414,-14.977 3.891,-4.872 8.355,-10.332 15.176,-11.064 -1.983,2.226 -2.047,3.177 -3.018,6.598 z"
                     adsadfs:knockout="Off" />
                  <path
                     inkscape:connector-curvature="0"
                     id="path3902"
                     d="M 43.888,10.605 C 40.05,2.642 31.083,-1.23 21.993,0.347 c 0,0 -2.003,2.78 -1.366,5.936 1.938,9.623 8.203,18.281 17.706,23.137 0.169,0.073 0.73,-0.115 0.389,-0.51 C 29.578,24.031 24.412,15.55 21.621,6.283 20.877,3.806 22.18,0.948 22.159,0.896 30.68,0.064 38.546,3.765 42.534,10.969 c 2.375,4.346 2.236,9.153 2.128,13.838 0.111,0.511 0.579,0.17 0.579,0.024 0.331,-4.782 0.828,-9.709 -1.353,-14.226 z"
                     adsadfs:knockout="Off" />
                  <path
                     style="fill:#9cd122"
                     inkscape:connector-curvature="0"
                     id="path3904"
                     d="m 41.655,28.408 c 0,0 1.976,-21.4 -11.844,-20.532 9.211,2.603 11.516,17.929 11.844,20.532 z"
                     adsadfs:knockout="Off" />
                  <path
                     inkscape:connector-curvature="0"
                     id="path3906"
                     d="M 42.229,29.517 C 41.069,25.124 40.904,20.705 38.087,16.601 35.903,13.446 33.085,11.042 30.849,8.08 l 0,0 c -0.169,-0.267 -1.59,-0.583 -1.132,0.583 4.722,6.652 11.213,12.745 12.1,20.928 0.225,0.499 0.44,0.022 0.412,-0.074 l 0,0 z"
                     adsadfs:knockout="Off" />
                </g>
              </g>
              <path
                 style="fill:#a81018"
                 inkscape:connector-curvature="0"
                 id="path3908"
                 d="m 50.542,94.342 c 0,0 -1.647,12.724 -15.795,12.724 4.275,-3.761 14.479,-5.494 15.795,-12.724 z"
                 adsadfs:knockout="Off" />
            </g>
          </g>
        </g>
      </g>
      <g
         transform="translate(94.49424,226.33723)"
         inkscape:tile-y0="0.00046891476"
         inkscape:tile-x0="-0.00035960418"
         id="use3507"
         adsadfs:knockout="Off">
        <g
           id="g3912">
          <line
             style="fill:none"
             id="line3914"
             y2="108.347"
             x2="44.417"
             y1="0.347"
             x1="44.417"
             adsadfs:knockout="Off" />
          <g
             id="g3916">
            <g
               id="g3918">
              <path
                 style="fill:#9e6111"
                 inkscape:connector-curvature="0"
                 id="path3920"
                 d="m 68.874,8.505 -3.525,6.023 c 0,0 -12.831,-3.47 -19.742,24.869 -10e-4,0 2.114,-32.288 23.267,-30.892 z"
                 adsadfs:knockout="Off" />
              <path
                 style="fill:#4dac26"
                 inkscape:connector-curvature="0"
                 id="path3922"
                 d="m 44.618,31.878 c 0,0 -26.326,-9.832 -22.625,-31.531 9.79,0.589 26.573,0.01 22.625,31.531 z"
                 adsadfs:knockout="Off" />
              <path
                 style="fill:#008000"
                 inkscape:connector-curvature="0"
                 id="path3924"
                 d="m 46.922,35.637 c 0,0 7.239,2.602 13.491,-2.025 6.252,-4.625 21.719,-1.155 24.022,8.387 1.583,6.561 4.566,31.985 -6.661,47.985 -5.105,7.273 -13.082,15.924 -25.589,13.321 -2.304,2.024 -13.819,5.785 -22.374,4.049 C 21.258,105.618 -2.8,83.575 3.813,41.71 7.105,20.89 45.278,34.191 46.922,35.637 z"
                 adsadfs:knockout="Off" />
              <g
                 id="g3926">
                <g
                   id="g3928">
                  <path
                     inkscape:connector-curvature="0"
                     id="path3930"
                     d="m 60.105,34.235 c 5.405,-2.573 10.913,-3.78 16.133,0.518 11.935,9.856 9.208,28.551 7.664,39.814 -1.426,10.371 -9.681,18.906 -18.271,26.288 -5.238,4.527 -11.165,1.595 -14.589,0.775 -0.304,-0.072 -2.337,1.793 -0.416,2.257 5.944,1.433 8.234,1.677 11.993,-0.024 6.877,-3.13 12.102,-7.138 15.828,-12.914 5.225,-8.086 8.843,-17.505 9.726,-26.61 0.665,-6.384 0.829,-12.819 -1.326,-19.035 -1.962,-5.631 -3.535,-10.487 -10.828,-13.205 -9.695,-3.614 -15.03,0 -19.337,2.208 -0.758,0.386 -5.03,1.481 -5.058,1.579 -0.026,0.121 0.027,0.218 0.166,0.242 0,0 3.011,0.633 8.315,-1.893 z"
                     adsadfs:knockout="Off" />
                  <path
                     style="fill:#004600;fill-opacity:1"
                     inkscape:connector-curvature="0"
                     id="path3932"
                     d="m 38.366,39.686 c 0,0 -1.644,2.891 1.977,4.626 3.619,1.736 10.53,5.229 14.973,-3.892 -4.115,1.29 -14.973,3.893 -16.95,-0.734 z"
                     adsadfs:knockout="Off" />
                  <path
                     inkscape:connector-curvature="0"
                     id="path3934"
                     d="m 53.668,40.709 c -3.37,0.315 -7.128,0.096 -9.833,2.208 0,0 -3.29,-0.315 -4.781,-3.034 -0.064,-0.118 -0.531,-0.187 -0.443,0.218 0.829,1.458 3.261,3.035 5.196,3.522 0,0 4.086,-1.993 9.915,-2.525 0.115,-0.011 0.47,-0.306 -0.054,-0.389 l 0,0 z"
                     adsadfs:knockout="Off" />
                  <path
                     style="fill:#41bf41;fill-opacity:1"
                     inkscape:connector-curvature="0"
                     id="path3936"
                     d="m 63.265,36.194 c 0,0 20.511,-6.629 15.906,21.133 C 77.855,38.239 70.616,38.528 63.265,36.194 z"
                     adsadfs:knockout="Off" />
                  <path
                     inkscape:connector-curvature="0"
                     id="path3938"
                     d="m 21.351,39.36 c -8.45,8.496 -8.387,21.701 -3.582,31.535 0.636,0.666 0.832,-0.047 0.747,-0.244 -3.646,-9.37 -5.47,-21.46 3.068,-29.23 0,0 1.878,-1.843 1.851,-1.94 -0.058,-0.099 -2.084,-0.121 -2.084,-0.121 z"
                     adsadfs:knockout="Off" />
                  <path
                     inkscape:connector-curvature="0"
                     id="path3940"
                     d="M 70.603,14.634 C 69.693,13.129 68.752,10.446 69.72,8.541 69.859,8.37 66.696,5.118 59.967,9.222 52.453,14.125 47.7,20.584 45.491,28.473 45.115,29.765 44.666,34.165 44.449,34.037 39.53,31.221 33.776,29.541 28.167,28.716 22.89,27.963 17.534,27.866 12.67,29.929 4.602,33.353 0.982,41.146 0.265,48.527 c -1.214,12.091 1.881,24.034 6.356,35.371 12.172,29.194 31.823,25.543 36.77,22.678 3.233,-1.893 4.363,-5.146 5.25,-8.278 0.166,-0.293 -4.083,12.512 -19.479,8.254 C 20.102,102.474 18.147,99.305 10.525,86.741 4.338,65.763 4.629,74.568 3.746,53.073 3.469,46.307 7.355,33.231 14.65,30.026 c 7.878,-3.423 23.824,2.957 29.681,5.439 0.128,0.057 -0.105,3.87 0.331,5.075 0.437,1.204 0.91,0.388 0.938,0.17 1.634,-4.151 2.432,-8.547 4.448,-12.553 2.692,-5.333 6.315,-11.988 13.854,-12.61 0.003,0.003 3.443,0.701 4.735,-0.684 -0.527,-0.29 -1.491,-0.495 -1.921,-0.408 -0.45,0.634 -1.425,0.08 -2.148,0.197 1.086,-2.227 2.392,-4.351 3.718,-6.462 l 0.589,0.316 c -0.88,1.274 -0.565,4.917 0.846,6.519 0.11,0.217 1.142,0.391 0.882,-0.391 z M 45.004,38.381 c -0.01,-0.956 0.058,-1.939 0.166,-2.933 0.382,-0.144 0.724,-0.44 0.899,-0.807 l 0.023,-0.018 c -0.435,1.234 -0.827,2.481 -1.088,3.758 z M 63.918,14.685 c -3.204,-0.024 -6.079,1.189 -8.4,3.203 -3.203,2.817 -4.337,6.41 -6.241,9.833 -1.204,2.17 -2.263,4.381 -3.092,6.653 -0.044,-0.082 -0.152,-0.141 -0.254,-0.098 l -0.585,-0.148 c 0.822,-5.332 3.146,-10.887 6.414,-14.977 3.891,-4.872 8.355,-10.332 15.176,-11.064 -1.983,2.226 -2.047,3.177 -3.018,6.598 z"
                     adsadfs:knockout="Off" />
                  <path
                     inkscape:connector-curvature="0"
                     id="path3942"
                     d="M 43.888,10.605 C 40.05,2.642 31.083,-1.23 21.993,0.347 c 0,0 -2.003,2.78 -1.366,5.936 1.938,9.623 8.203,18.281 17.706,23.137 0.169,0.073 0.73,-0.115 0.389,-0.51 C 29.578,24.031 24.412,15.55 21.621,6.283 20.877,3.806 22.18,0.948 22.159,0.896 30.68,0.064 38.546,3.765 42.534,10.969 c 2.375,4.346 2.236,9.153 2.128,13.838 0.111,0.511 0.579,0.17 0.579,0.024 0.331,-4.782 0.828,-9.709 -1.353,-14.226 z"
                     adsadfs:knockout="Off" />
                  <path
                     style="fill:#9cd122"
                     inkscape:connector-curvature="0"
                     id="path3944"
                     d="m 41.655,28.408 c 0,0 1.976,-21.4 -11.844,-20.532 9.211,2.603 11.516,17.929 11.844,20.532 z"
                     adsadfs:knockout="Off" />
                  <path
                     inkscape:connector-curvature="0"
                     id="path3946"
                     d="M 42.229,29.517 C 41.069,25.124 40.904,20.705 38.087,16.601 35.903,13.446 33.085,11.042 30.849,8.08 l 0,0 c -0.169,-0.267 -1.59,-0.583 -1.132,0.583 4.722,6.652 11.213,12.745 12.1,20.928 0.225,0.499 0.44,0.022 0.412,-0.074 l 0,0 z"
                     adsadfs:knockout="Off" />
                </g>
              </g>
              <path
                 style="fill:#004600;fill-opacity:1"
                 inkscape:connector-curvature="0"
                 id="path3948"
                 d="m 50.542,94.342 c 0,0 -1.647,12.724 -15.795,12.724 4.275,-3.761 14.479,-5.494 15.795,-12.724 z"
                 adsadfs:knockout="Off" />
            </g>
          </g>
        </g>
      </g>
      <g
         transform="translate(188.98849,226.33723)"
         inkscape:tile-y0="0.00046891476"
         inkscape:tile-x0="-0.00035960418"
         id="use3513"
         adsadfs:knockout="Off">
        <g
           id="g3952">
          <line
             style="fill:none"
             id="line3954"
             y2="108.347"
             x2="44.417"
             y1="0.347"
             x1="44.417"
             adsadfs:knockout="Off" />
          <g
             id="g3956">
            <g
               id="g3958">
              <path
                 style="fill:#9e6111"
                 inkscape:connector-curvature="0"
                 id="path3960"
                 d="m 68.874,8.505 -3.525,6.023 c 0,0 -12.831,-3.47 -19.742,24.869 -10e-4,0 2.114,-32.288 23.267,-30.892 z"
                 adsadfs:knockout="Off" />
              <path
                 style="fill:#4dac26"
                 inkscape:connector-curvature="0"
                 id="path3962"
                 d="m 44.618,31.878 c 0,0 -26.326,-9.832 -22.625,-31.531 9.79,0.589 26.573,0.01 22.625,31.531 z"
                 adsadfs:knockout="Off" />
              <path
                 style="fill:#a0a000;fill-opacity:1"
                 inkscape:connector-curvature="0"
                 id="path3964"
                 d="m 46.922,35.637 c 0,0 7.239,2.602 13.491,-2.025 6.252,-4.625 21.719,-1.155 24.022,8.387 1.583,6.561 4.566,31.985 -6.661,47.985 -5.105,7.273 -13.082,15.924 -25.589,13.321 -2.304,2.024 -13.819,5.785 -22.374,4.049 C 21.258,105.618 -2.8,83.575 3.813,41.71 7.105,20.89 45.278,34.191 46.922,35.637 z"
                 adsadfs:knockout="Off" />
              <g
                 id="g3966">
                <g
                   id="g3968">
                  <path
                     inkscape:connector-curvature="0"
                     id="path3970"
                     d="m 60.105,34.235 c 5.405,-2.573 10.913,-3.78 16.133,0.518 11.935,9.856 9.208,28.551 7.664,39.814 -1.426,10.371 -9.681,18.906 -18.271,26.288 -5.238,4.527 -11.165,1.595 -14.589,0.775 -0.304,-0.072 -2.337,1.793 -0.416,2.257 5.944,1.433 8.234,1.677 11.993,-0.024 6.877,-3.13 12.102,-7.138 15.828,-12.914 5.225,-8.086 8.843,-17.505 9.726,-26.61 0.665,-6.384 0.829,-12.819 -1.326,-19.035 -1.962,-5.631 -3.535,-10.487 -10.828,-13.205 -9.695,-3.614 -15.03,0 -19.337,2.208 -0.758,0.386 -5.03,1.481 -5.058,1.579 -0.026,0.121 0.027,0.218 0.166,0.242 0,0 3.011,0.633 8.315,-1.893 z"
                     adsadfs:knockout="Off" />
                  <path
                     style="fill:#464600;fill-opacity:1"
                     inkscape:connector-curvature="0"
                     id="path3972"
                     d="m 38.366,39.686 c 0,0 -1.644,2.891 1.977,4.626 3.619,1.736 10.53,5.229 14.973,-3.892 -4.115,1.29 -14.973,3.893 -16.95,-0.734 z"
                     adsadfs:knockout="Off" />
                  <path
                     inkscape:connector-curvature="0"
                     id="path3974"
                     d="m 53.668,40.709 c -3.37,0.315 -7.128,0.096 -9.833,2.208 0,0 -3.29,-0.315 -4.781,-3.034 -0.064,-0.118 -0.531,-0.187 -0.443,0.218 0.829,1.458 3.261,3.035 5.196,3.522 0,0 4.086,-1.993 9.915,-2.525 0.115,-0.011 0.47,-0.306 -0.054,-0.389 l 0,0 z"
                     adsadfs:knockout="Off" />
                  <path
                     style="fill:#bfbf41;fill-opacity:1"
                     inkscape:connector-curvature="0"
                     id="path3976"
                     d="m 63.265,36.194 c 0,0 20.511,-6.629 15.906,21.133 C 77.855,38.239 70.616,38.528 63.265,36.194 z"
                     adsadfs:knockout="Off" />
                  <path
                     inkscape:connector-curvature="0"
                     id="path3978"
                     d="m 21.351,39.36 c -8.45,8.496 -8.387,21.701 -3.582,31.535 0.636,0.666 0.832,-0.047 0.747,-0.244 -3.646,-9.37 -5.47,-21.46 3.068,-29.23 0,0 1.878,-1.843 1.851,-1.94 -0.058,-0.099 -2.084,-0.121 -2.084,-0.121 z"
                     adsadfs:knockout="Off" />
                  <path
                     inkscape:connector-curvature="0"
                     id="path3980"
                     d="M 70.603,14.634 C 69.693,13.129 68.752,10.446 69.72,8.541 69.859,8.37 66.696,5.118 59.967,9.222 52.453,14.125 47.7,20.584 45.491,28.473 45.115,29.765 44.666,34.165 44.449,34.037 39.53,31.221 33.776,29.541 28.167,28.716 22.89,27.963 17.534,27.866 12.67,29.929 4.602,33.353 0.982,41.146 0.265,48.527 c -1.214,12.091 1.881,24.034 6.356,35.371 12.172,29.194 31.823,25.543 36.77,22.678 3.233,-1.893 4.363,-5.146 5.25,-8.278 0.166,-0.293 -4.083,12.512 -19.479,8.254 C 20.102,102.474 18.147,99.305 10.525,86.741 4.338,65.763 4.629,74.568 3.746,53.073 3.469,46.307 7.355,33.231 14.65,30.026 c 7.878,-3.423 23.824,2.957 29.681,5.439 0.128,0.057 -0.105,3.87 0.331,5.075 0.437,1.204 0.91,0.388 0.938,0.17 1.634,-4.151 2.432,-8.547 4.448,-12.553 2.692,-5.333 6.315,-11.988 13.854,-12.61 0.003,0.003 3.443,0.701 4.735,-0.684 -0.527,-0.29 -1.491,-0.495 -1.921,-0.408 -0.45,0.634 -1.425,0.08 -2.148,0.197 1.086,-2.227 2.392,-4.351 3.718,-6.462 l 0.589,0.316 c -0.88,1.274 -0.565,4.917 0.846,6.519 0.11,0.217 1.142,0.391 0.882,-0.391 z M 45.004,38.381 c -0.01,-0.956 0.058,-1.939 0.166,-2.933 0.382,-0.144 0.724,-0.44 0.899,-0.807 l 0.023,-0.018 c -0.435,1.234 -0.827,2.481 -1.088,3.758 z M 63.918,14.685 c -3.204,-0.024 -6.079,1.189 -8.4,3.203 -3.203,2.817 -4.337,6.41 -6.241,9.833 -1.204,2.17 -2.263,4.381 -3.092,6.653 -0.044,-0.082 -0.152,-0.141 -0.254,-0.098 l -0.585,-0.148 c 0.822,-5.332 3.146,-10.887 6.414,-14.977 3.891,-4.872 8.355,-10.332 15.176,-11.064 -1.983,2.226 -2.047,3.177 -3.018,6.598 z"
                     adsadfs:knockout="Off" />
                  <path
                     inkscape:connector-curvature="0"
                     id="path3982"
                     d="M 43.888,10.605 C 40.05,2.642 31.083,-1.23 21.993,0.347 c 0,0 -2.003,2.78 -1.366,5.936 1.938,9.623 8.203,18.281 17.706,23.137 0.169,0.073 0.73,-0.115 0.389,-0.51 C 29.578,24.031 24.412,15.55 21.621,6.283 20.877,3.806 22.18,0.948 22.159,0.896 30.68,0.064 38.546,3.765 42.534,10.969 c 2.375,4.346 2.236,9.153 2.128,13.838 0.111,0.511 0.579,0.17 0.579,0.024 0.331,-4.782 0.828,-9.709 -1.353,-14.226 z"
                     adsadfs:knockout="Off" />
                  <path
                     style="fill:#9cd122"
                     inkscape:connector-curvature="0"
                     id="path3984"
                     d="m 41.655,28.408 c 0,0 1.976,-21.4 -11.844,-20.532 9.211,2.603 11.516,17.929 11.844,20.532 z"
                     adsadfs:knockout="Off" />
                  <path
                     inkscape:connector-curvature="0"
                     id="path3986"
                     d="M 42.229,29.517 C 41.069,25.124 40.904,20.705 38.087,16.601 35.903,13.446 33.085,11.042 30.849,8.08 l 0,0 c -0.169,-0.267 -1.59,-0.583 -1.132,0.583 4.722,6.652 11.213,12.745 12.1,20.928 0.225,0.499 0.44,0.022 0.412,-0.074 l 0,0 z"
                     adsadfs:knockout="Off" />
                </g>
              </g>
              <path
                 style="fill:#464600;fill-opacity:1"
                 inkscape:connector-curvature="0"
                 id="path3988"
                 d="m 50.542,94.342 c 0,0 -1.647,12.724 -15.795,12.724 4.275,-3.761 14.479,-5.494 15.795,-12.724 z"
                 adsadfs:knockout="Off" />
            </g>
          </g>
        </g>
      </g>
    </g>
  </g>
</svg>
