<?xml version="1.0" encoding="UTF-8"?>
<!DOCTYPE svg PUBLIC "-//W3C//DTD SVG 1.1//EN" "http://www.w3.org/Graphics/SVG/1.1/DTD/svg11.dtd">
<svg width="160mm" height="90mm" viewBox="0 0 16000 9000" version="1.1" xmlns="http://www.w3.org/2000/svg" stroke-width="28.222" stroke-linejoin="round" xml:space="preserve">
 <path fill="rgb(255,255,255)" stroke="none" d="M 7999,0 L 0,9005 0,9005 15998,0 15998,0 7999,9005 Z"/>
 <path fill="none" stroke="rgb(179,179,179)" stroke-linejoin="round" d="M 8675,0 L 1766,7197 1766,7197 15585,379 15585,379 8675,7197 Z"/>
 <path fill="none" stroke="rgb(179,179,179)" stroke-linejoin="round" d="M 15585,0 L 1766,7196"/>
 <path fill="none" stroke="rgb(179,179,179)" stroke-linejoin="round" d="M 15585,0 L 1766,6343"/>
 <path fill="none" stroke="rgb(179,179,179)" stroke-linejoin="round" d="M 15585,0 L 1766,5491"/>
 <path fill="none" stroke="rgb(179,179,179)" stroke-linejoin="round" d="M 15585,0 L 1766,4638"/>
 <path fill="none" stroke="rgb(179,179,179)" stroke-linejoin="round" d="M 15585,0 L 1766,3787"/>
 <path fill="none" stroke="rgb(179,179,179)" stroke-linejoin="round" d="M 15585,0 L 1766,2935"/>
 <path fill="none" stroke="rgb(179,179,179)" stroke-linejoin="round" d="M 15585,0 L 1766,2082"/>
 <path fill="none" stroke="rgb(179,179,179)" stroke-linejoin="round" d="M 15585,0 L 1766,1230"/>
 <path fill="none" stroke="rgb(179,179,179)" stroke-linejoin="round" d="M 15585,0 L 1766,378"/>
 <path fill="none" stroke="rgb(179,179,179)" stroke-linejoin="round" d="M 1766,0 L 1766,7346"/>
 <path fill="none" stroke="rgb(179,179,179)" stroke-linejoin="round" d="M 1766,0 L 1766,7346"/>
 <path fill="none" stroke="rgb(179,179,179)" stroke-linejoin="round" d="M 3740,0 L 3740,7346"/>
 <path fill="none" stroke="rgb(179,179,179)" stroke-linejoin="round" d="M 3740,0 L 3740,7346"/>
 <path fill="none" stroke="rgb(179,179,179)" stroke-linejoin="round" d="M 5714,0 L 5714,7346"/>
 <path fill="none" stroke="rgb(179,179,179)" stroke-linejoin="round" d="M 5714,0 L 5714,7346"/>
 <path fill="none" stroke="rgb(179,179,179)" stroke-linejoin="round" d="M 7688,0 L 7688,7346"/>
 <path fill="none" stroke="rgb(179,179,179)" stroke-linejoin="round" d="M 7688,0 L 7688,7346"/>
 <path fill="none" stroke="rgb(179,179,179)" stroke-linejoin="round" d="M 9662,0 L 9662,7346"/>
 <path fill="none" stroke="rgb(179,179,179)" stroke-linejoin="round" d="M 9662,0 L 9662,7346"/>
 <path fill="none" stroke="rgb(179,179,179)" stroke-linejoin="round" d="M 11636,0 L 11636,7346"/>
 <path fill="none" stroke="rgb(179,179,179)" stroke-linejoin="round" d="M 11636,0 L 11636,7346"/>
 <path fill="none" stroke="rgb(179,179,179)" stroke-linejoin="round" d="M 13610,0 L 13610,7346"/>
 <path fill="none" stroke="rgb(179,179,179)" stroke-linejoin="round" d="M 13610,0 L 13610,7346"/>
 <path fill="none" stroke="rgb(179,179,179)" stroke-linejoin="round" d="M 15585,0 L 15585,7346"/>
 <path fill="none" stroke="rgb(179,179,179)" stroke-linejoin="round" d="M 15585,0 L 15585,7346"/>
 <path fill="none" stroke="rgb(179,179,179)" stroke-linejoin="round" d="M 1766,0 L 15585,7196"/>
 <path fill="none" stroke="rgb(179,179,179)" stroke-linejoin="round" d="M 1616,0 L 1766,7196"/>
 <path fill="none" stroke="rgb(179,179,179)" stroke-linejoin="round" d="M 1616,0 L 1766,7196"/>
 <path fill="none" stroke="rgb(179,179,179)" stroke-linejoin="round" d="M 1616,0 L 1766,6343"/>
 <path fill="none" stroke="rgb(179,179,179)" stroke-linejoin="round" d="M 1616,0 L 1766,6343"/>
 <path fill="none" stroke="rgb(179,179,179)" stroke-linejoin="round" d="M 1616,0 L 1766,5491"/>
 <path fill="none" stroke="rgb(179,179,179)" stroke-linejoin="round" d="M 1616,0 L 1766,5491"/>
 <path fill="none" stroke="rgb(179,179,179)" stroke-linejoin="round" d="M 1616,0 L 1766,4638"/>
 <path fill="none" stroke="rgb(179,179,179)" stroke-linejoin="round" d="M 1616,0 L 1766,4638"/>
 <path fill="none" stroke="rgb(179,179,179)" stroke-linejoin="round" d="M 1616,0 L 1766,3787"/>
 <path fill="none" stroke="rgb(179,179,179)" stroke-linejoin="round" d="M 1616,0 L 1766,3787"/>
 <path fill="none" stroke="rgb(179,179,179)" stroke-linejoin="round" d="M 1616,0 L 1766,2935"/>
 <path fill="none" stroke="rgb(179,179,179)" stroke-linejoin="round" d="M 1616,0 L 1766,2935"/>
 <path fill="none" stroke="rgb(179,179,179)" stroke-linejoin="round" d="M 1616,0 L 1766,2082"/>
 <path fill="none" stroke="rgb(179,179,179)" stroke-linejoin="round" d="M 1616,0 L 1766,2082"/>
 <path fill="none" stroke="rgb(179,179,179)" stroke-linejoin="round" d="M 1616,0 L 1766,1230"/>
 <path fill="none" stroke="rgb(179,179,179)" stroke-linejoin="round" d="M 1616,0 L 1766,1230"/>
 <path fill="none" stroke="rgb(179,179,179)" stroke-linejoin="round" d="M 1616,0 L 1766,378"/>
 <path fill="none" stroke="rgb(179,179,179)" stroke-linejoin="round" d="M 1616,0 L 1766,378"/>
 <path fill="none" stroke="rgb(179,179,179)" stroke-linejoin="round" d="M 1766,0 L 1766,7196"/>
 <path fill="none" stroke="rgb(0,69,134)" stroke-width="80" stroke-linejoin="round" d="M 1766,0 L 3740,7196 5714,5491 7688,3787 9662,1230 11636,2082 13610,4638 15585,5491"/>
 <text class="TextShape"><tspan class="TextParagraph" font-family="Liberation Sans, sans-serif" font-size="353px" font-weight="400"><tspan class="TextPosition" x="1673" y="7764"><tspan fill="rgb(0,0,0)" stroke="none">0</tspan></tspan></tspan></text>
 <text class="TextShape"><tspan class="TextParagraph" font-family="Liberation Sans, sans-serif" font-size="353px" font-weight="400"><tspan class="TextPosition" x="3647" y="7764"><tspan fill="rgb(0,0,0)" stroke="none">1</tspan></tspan></tspan></text>
 <text class="TextShape"><tspan class="TextParagraph" font-family="Liberation Sans, sans-serif" font-size="353px" font-weight="400"><tspan class="TextPosition" x="5621" y="7764"><tspan fill="rgb(0,0,0)" stroke="none">2</tspan></tspan></tspan></text>
 <text class="TextShape"><tspan class="TextParagraph" font-family="Liberation Sans, sans-serif" font-size="353px" font-weight="400"><tspan class="TextPosition" x="7595" y="7764"><tspan fill="rgb(0,0,0)" stroke="none">3</tspan></tspan></tspan></text>
 <text class="TextShape"><tspan class="TextParagraph" font-family="Liberation Sans, sans-serif" font-size="353px" font-weight="400"><tspan class="TextPosition" x="9570" y="7764"><tspan fill="rgb(0,0,0)" stroke="none">4</tspan></tspan></tspan></text>
 <text class="TextShape"><tspan class="TextParagraph" font-family="Liberation Sans, sans-serif" font-size="353px" font-weight="400"><tspan class="TextPosition" x="11544" y="7764"><tspan fill="rgb(0,0,0)" stroke="none">5</tspan></tspan></tspan></text>
 <text class="TextShape"><tspan class="TextParagraph" font-family="Liberation Sans, sans-serif" font-size="353px" font-weight="400"><tspan class="TextPosition" x="13518" y="7764"><tspan fill="rgb(0,0,0)" stroke="none">6</tspan></tspan></tspan></text>
 <text class="TextShape"><tspan class="TextParagraph" font-family="Liberation Sans, sans-serif" font-size="353px" font-weight="400"><tspan class="TextPosition" x="15493" y="7764"><tspan fill="rgb(0,0,0)" stroke="none">7</tspan></tspan></tspan></text>
 <text class="TextShape"><tspan class="TextParagraph" font-family="Liberation Sans, sans-serif" font-size="353px" font-weight="400"><tspan class="TextPosition" x="1331" y="7317"><tspan fill="rgb(0,0,0)" stroke="none">0</tspan></tspan></tspan></text>
 <text class="TextShape"><tspan class="TextParagraph" font-family="Liberation Sans, sans-serif" font-size="353px" font-weight="400"><tspan class="TextPosition" x="1331" y="6464"><tspan fill="rgb(0,0,0)" stroke="none">1</tspan></tspan></tspan></text>
 <text class="TextShape"><tspan class="TextParagraph" font-family="Liberation Sans, sans-serif" font-size="353px" font-weight="400"><tspan class="TextPosition" x="1331" y="5612"><tspan fill="rgb(0,0,0)" stroke="none">2</tspan></tspan></tspan></text>
 <text class="TextShape"><tspan class="TextParagraph" font-family="Liberation Sans, sans-serif" font-size="353px" font-weight="400"><tspan class="TextPosition" x="1331" y="4759"><tspan fill="rgb(0,0,0)" stroke="none">3</tspan></tspan></tspan></text>
 <text class="TextShape"><tspan class="TextParagraph" font-family="Liberation Sans, sans-serif" font-size="353px" font-weight="400"><tspan class="TextPosition" x="1331" y="3907"><tspan fill="rgb(0,0,0)" stroke="none">4</tspan></tspan></tspan></text>
 <text class="TextShape"><tspan class="TextParagraph" font-family="Liberation Sans, sans-serif" font-size="353px" font-weight="400"><tspan class="TextPosition" x="1331" y="3055"><tspan fill="rgb(0,0,0)" stroke="none">5</tspan></tspan></tspan></text>
 <text class="TextShape"><tspan class="TextParagraph" font-family="Liberation Sans, sans-serif" font-size="353px" font-weight="400"><tspan class="TextPosition" x="1331" y="2202"><tspan fill="rgb(0,0,0)" stroke="none">6</tspan></tspan></tspan></text>
 <text class="TextShape"><tspan class="TextParagraph" font-family="Liberation Sans, sans-serif" font-size="353px" font-weight="400"><tspan class="TextPosition" x="1331" y="1350"><tspan fill="rgb(0,0,0)" stroke="none">7</tspan></tspan></tspan></text>
 <text class="TextShape"><tspan class="TextParagraph" font-family="Liberation Sans, sans-serif" font-size="353px" font-weight="400"><tspan class="TextPosition" x="1331" y="498"><tspan fill="rgb(0,0,0)" stroke="none">8</tspan></tspan></tspan></text>
 <text class="TextShape"><tspan class="TextParagraph" font-family="Liberation Sans, sans-serif" font-size="318px" font-weight="400"><tspan class="TextPosition" x="8148" y="8411"><tspan fill="rgb(0,0,0)" stroke="none">Time</tspan></tspan></tspan></text>
 <text class="TextShape" transform="translate(837,4408) rotate(-90) translate(-837,-4408)"><tspan class="TextParagraph" font-family="Liberation Sans, sans-serif" font-size="318px" font-weight="400"><tspan class="TextPosition" x="837" y="4408"><tspan fill="rgb(0,0,0)" stroke="none">Level</tspan></tspan></tspan></text>
</svg>